{
    "asset" : {
        "generator" : "Khronos glTF Blender I/O v1.2.75",
        "version" : "2.0"
    },
    "scene" : 0,
    "scenes" : [
        {
            "name" : "giraffe",
            "nodes" : [
                1
            ]
        }
    ],
    "nodes" : [
        {
            "mesh" : 0,
            "name" : "Giraffe.001"
        },
        {
            "children" : [
                0
            ],
            "name" : "Giraffe"
        }
    ],
    "materials" : [
        {
            "doubleSided" : true,
            "name" : "b0b0b0",
            "pbrMetallicRoughness" : {}
        }
    ],
    "meshes" : [
        {
            "name" : "Giraffe",
            "primitives" : [
                {
                    "attributes" : {
                        "POSITION" : 0,
                        "NORMAL" : 1
                    },
                    "indices" : 2,
                    "material" : 0
                }
            ]
        }
    ],
    "accessors" : [
        {
            "bufferView" : 0,
            "componentType" : 5126,
            "count" : 23022,
            "max" : [
                17.659013748168945,
                111.67417907714844,
                67.6419677734375
            ],
            "min" : [
                -17.659013748168945,
                -111.67417907714844,
                -67.6419677734375
            ],
            "type" : "VEC3"
        },
        {
            "bufferView" : 1,
            "componentType" : 5126,
            "count" : 23022,
            "type" : "VEC3"
        },
        {
            "bufferView" : 2,
            "componentType" : 5123,
            "count" : 138096,
            "type" : "SCALAR"
        }
    ],
    "bufferViews" : [
        {
            "buffer" : 0,
            "byteLength" : 276264,
            "byteOffset" : 0
        },
        {
            "buffer" : 0,
            "byteLength" : 276264,
            "byteOffset" : 276264
        },
        {
            "buffer" : 0,
            "byteLength" : 276192,
            "byteOffset" : 552528
        }
    ],
    "buffers" : [
        {
            "byteLength" : 828720,
            "uri" : "data:application/octet-stream;base64,"
        }
    ]
}
