<?xml version="1.0" encoding="utf-8"?>
<!-- Generator: Adobe Illustrator 21.0.0, SVG Export Plug-In . SVG Version: 6.00 Build 0)  -->
<svg version="1.1" id="Layer_1" xmlns="http://www.w3.org/2000/svg" xmlns:xlink="http://www.w3.org/1999/xlink" x="0px" y="0px"
	 viewBox="0 0 512 512" style="enable-background:new 0 0 512 512;" xml:space="preserve">
<g>
	<path d="M256,0C193.8,0,135.4,16.3,92,50s-70.7,86-70.7,151.3c0,59.8,29.4,106.4,45.3,127.3c-1.3,6.9-2.7,14.2-2.7,22.7
		c0,25.4,15.3,46.8,35.3,58.7c14.1,8.3,32.3,9.8,50,12v56l6.7,6.7c0,0,9.3,8.9,25.3,15.3s40.5,12,74.7,12s58.6-5.6,74.7-12
		c16.1-6.4,25.3-15.3,25.3-15.3l6.7-6.7v-56c17.7-2.2,35.9-3.7,50-12c20.1-11.9,35.3-33.3,35.3-58.7c0-8.5-1.3-15.8-2.7-22.7
		c15.9-20.9,45.3-67.5,45.3-127.3c0-65.4-27.3-117.6-70.7-151.3S318.3,0,256,0z M256,42.7c54.9,0,103.4,14.3,137.3,40.7
		s54.7,64.1,54.7,118c0,29-9.3,54.7-19.3,74c-1.1-5.3-2-11.1-2-19.3H384c0,26.4,7.3,43.9,12.7,56.7c5.4,12.8,8.7,20.6,8.7,38.7
		c0,10.3-3.9,15.7-14.7,22c-10.8,6.3-28.5,10.7-49.3,10.7H320v73.3c-1.8,1-0.6,0.8-5.3,2.7c-10.7,4.3-29.3,9.3-58.7,9.3
		s-48-5.1-58.7-9.3c-4.8-1.9-3.6-1.7-5.3-2.7V384h-21.3c-20.8,0-38.6-4.3-49.3-10.7c-10.8-6.3-14.7-11.8-14.7-22
		c0-18.1,3.3-25.9,8.7-38.7c5.4-12.8,12.7-30.3,12.7-56.7H85.3c0,8.3-0.9,14.1-2,19.3c-10-19.3-19.3-45-19.3-74
		c0-53.9,20.8-91.7,54.7-118S201.1,42.7,256,42.7z M192,256c-23.6,0-42.7,19.1-42.7,42.7c0,23.6,19.1,42.7,42.7,42.7
		s42.7-19.1,42.7-42.7C234.7,275.1,215.6,256,192,256z M320,256c-23.6,0-42.7,19.1-42.7,42.7c0,23.6,19.1,42.7,42.7,42.7
		s42.7-19.1,42.7-42.7C362.7,275.1,343.6,256,320,256z M256,336c0,0-26.7,34-26.7,50c0,8,5.3,12,10.7,12c8.9,0,16-16,16-16
		s7.1,16,16,16c5.3,0,10.7-4,10.7-12C282.7,370,256,336,256,336z" fill="white"/>
</g>
</svg>
